HIERARCHY
ROOT SpineBase
{
  OFFSET 0.000000 0.000000 0.000000
  CHANNELS 6 Xposition Yposition Zposition Zrotation Xrotation Yrotation
  JOINT SpineMid
  {
    OFFSET 0.000000 33.287410 -0.000000
    CHANNELS 3 Zrotation Xrotation Yrotation
    JOINT SpineShoulder
    {
      OFFSET 0.148084 24.660566 -0.699711
      CHANNELS 3 Zrotation Xrotation Yrotation
      JOINT Neck
      {
        OFFSET 0.117274 8.143229 -0.588081
        CHANNELS 3 Zrotation Xrotation Yrotation
        JOINT Head
        {
          OFFSET -1.530599 9.733955 7.029461
          CHANNELS 3 Zrotation Xrotation Yrotation
          End Site
          {
            OFFSET 0 0 0
          }
        }
      }
      JOINT ShoulderLeft
      {
        OFFSET -14.548685 -7.463650 -7.216288
        CHANNELS 3 Zrotation Xrotation Yrotation
        JOINT ElbowLeft
        {
          OFFSET -6.336922 -25.107484 4.184952
          CHANNELS 3 Zrotation Xrotation Yrotation
          JOINT WristLeft
          {
            OFFSET -4.461794 -24.588824 7.623479
            CHANNELS 3 Zrotation Xrotation Yrotation
            JOINT HandLeft
            {
              OFFSET -1.578961 -8.968210 2.625929
              CHANNELS 3 Zrotation Xrotation Yrotation
              JOINT HandTipLeft
              {
                OFFSET 1.292414 -7.082540 1.649702
                CHANNELS 3 Zrotation Xrotation Yrotation
                End Site
                {
                  OFFSET 0 0 0
                }
              }
              JOINT ThumbLeft
              {
                OFFSET -1.331909 -4.234076 -4.236564
                CHANNELS 3 Zrotation Xrotation Yrotation
                End Site
                {
                  OFFSET 0 0 0
                }
              }
            }
          }
        }
      }
      JOINT ShoulderRight
      {
        OFFSET 15.456404 -6.081660 -3.879197
        CHANNELS 3 Zrotation Xrotation Yrotation
        JOINT ElbowRight
        {
          OFFSET 4.507760 -25.514660 4.972609
          CHANNELS 3 Zrotation Xrotation Yrotation
          JOINT WristRight
          {
            OFFSET 1.637110 -24.944568 7.801861
            CHANNELS 3 Zrotation Xrotation Yrotation
            JOINT HandRight
            {
              OFFSET -0.355592 -7.669458 1.090465
              CHANNELS 3 Zrotation Xrotation Yrotation
              JOINT HandTipRight
              {
                OFFSET 4.307495 -7.202381 5.241841
                CHANNELS 3 Zrotation Xrotation Yrotation
                End Site
                {
                  OFFSET 0 0 0
                }
              }
              JOINT ThumbRight
              {
                OFFSET 1.831949 -2.811222 -3.903352
                CHANNELS 3 Zrotation Xrotation Yrotation
                End Site
                {
                  OFFSET 0 0 0
                }
              }
            }
          }
        }
      }
    }
  }
  JOINT HipLeft
  {
    OFFSET -5.231679 1.070503 -4.706361
    CHANNELS 3 Zrotation Xrotation Yrotation
    JOINT KneeLeft
    {
      OFFSET -1.111624 -39.193996 -5.363196
      CHANNELS 3 Zrotation Xrotation Yrotation
      JOINT AnkleLeft
      {
        OFFSET 1.349795 -35.337766 -1.998454
        CHANNELS 3 Zrotation Xrotation Yrotation
        JOINT FootLeft
        {
          OFFSET 3.022455 -3.901973 -10.745369
          CHANNELS 3 Zrotation Xrotation Yrotation
          End Site
          {
            OFFSET 0 0 0
          }
        }
      }
    }
  }
  JOINT HipRight
  {
    OFFSET 7.013329 1.063220 -2.963806
    CHANNELS 3 Zrotation Xrotation Yrotation
    JOINT KneeRight
    {
      OFFSET 1.737111 -39.530369 -5.495093
      CHANNELS 3 Zrotation Xrotation Yrotation
      JOINT AnkleRight
      {
        OFFSET 0.277453 -34.148350 -1.818488
        CHANNELS 3 Zrotation Xrotation Yrotation
        JOINT FootRight
        {
          OFFSET 2.761774 -2.615818 -15.175246
          CHANNELS 3 Zrotation Xrotation Yrotation
          End Site
          {
            OFFSET 0 0 0
          }
        }
      }
    }
  }
}
MOTION
Frames: 14
Frame Time: 0.033333
-70.545635 80.556865 307.231487 0.841388 1.051470 -8.620476 0.016810 -0.252250 8.632922 -0.062078 0.001163 0.024326 1.404959 -0.621827 -1.549591 0.000000 0.000000 0.000000 1.577283 1.705518 -0.313183 -1.021199 0.403428 0.096107 -1.199315 -1.781103 -0.074025 1.716790 5.804196 1.808290 0.000000 0.000000 0.000000 0.000000 0.000000 0.000000 -0.019521 -2.737360 -0.222789 -0.499892 6.239809 0.560878 4.383897 -13.988877 1.464129 -10.764614 23.345470 5.383791 0.000000 0.000000 0.000000 0.000000 0.000000 0.000000 -0.674431 -1.165611 8.605895 0.638308 1.069267 -0.001210 -9.143200 -33.561372 -35.818639 0.000000 0.000000 0.000000 -0.674431 -1.165611 8.605895 -0.000000 0.000000 0.000000 -0.649627 -2.081940 1.753850 0.000000 0.000000 0.000000
-70.539826 80.553469 307.288832 0.854826 1.029871 -8.607565 0.014156 -0.277105 8.620681 -0.060503 -0.015562 0.025526 1.032288 -1.486053 -1.435298 0.000000 0.000000 0.000000 1.468577 1.752321 -0.328462 -1.090316 0.509191 0.037606 -1.013251 -2.091282 0.042765 2.001556 4.693529 1.588032 0.000000 0.000000 0.000000 0.000000 0.000000 0.000000 -0.304563 -2.836026 -0.314316 -0.171444 7.056908 0.697084 5.574816 -15.309112 1.902139 -12.829990 25.779100 6.428180 0.000000 0.000000 0.000000 0.000000 0.000000 0.000000 -0.691211 -1.146113 8.592968 0.588254 1.104587 0.003252 -8.354487 -32.527954 -33.852827 0.000000 0.000000 0.000000 -0.691211 -1.146113 8.592968 0.779794 0.370708 -0.041028 -2.286494 -5.986711 3.945578 0.000000 0.000000 0.000000
-70.530046 80.554735 307.336636 0.879610 1.008934 -8.653951 0.014615 -0.291593 8.668026 -0.055744 -0.030193 0.027532 0.669302 -1.984341 -1.287524 0.000000 0.000000 0.000000 1.333100 1.801503 -0.349790 -1.019754 0.645157 0.019564 -1.096667 -3.145474 0.198741 1.789632 6.859968 1.580368 0.000000 0.000000 0.000000 0.000000 0.000000 0.000000 -0.569215 -2.913690 -0.392665 0.058067 7.774188 0.801214 6.129989 -16.288669 2.141088 -15.485127 27.574633 6.791529 0.000000 0.000000 0.000000 0.000000 0.000000 0.000000 -0.717935 -1.129697 8.639128 0.586847 1.195709 0.006357 -2.547661 -19.379651 -16.737625 0.000000 0.000000 0.000000 -0.717935 -1.129697 8.639128 0.876144 0.412771 -0.046448 -4.001507 -15.110719 9.673176 0.000000 0.000000 0.000000
-70.530288 80.559678 307.359504 0.888054 1.000030 -8.881434 0.012021 -0.302600 8.895757 -0.054254 -0.048643 0.028348 0.344800 -2.293957 -1.118504 0.000000 0.000000 0.000000 1.193529 1.814172 -0.366188 -0.752730 0.771533 0.062814 -1.230634 -3.245648 0.170842 0.711180 8.073130 1.615706 0.000000 0.000000 0.000000 0.000000 0.000000 0.000000 -0.788285 -2.788769 -0.426538 0.211190 7.977411 0.830360 6.974157 -15.684760 2.340910 -17.586070 27.805143 6.954093 0.000000 0.000000 0.000000 0.000000 0.000000 0.000000 -0.723161 -1.125044 8.866584 0.563364 1.284370 0.010877 -1.005000 -13.845451 -12.410764 0.000000 0.000000 0.000000 -0.723161 -1.125044 8.866584 0.909914 0.435495 -0.048363 -4.747309 -24.303838 15.515642 0.000000 0.000000 0.000000
-70.516366 80.552354 307.390844 0.896617 0.984859 -9.073591 0.000463 -0.314510 9.087895 -0.062159 -0.062498 0.027989 0.207871 -2.393168 -1.034480 0.000000 0.000000 0.000000 1.074260 1.828199 -0.380802 -0.602974 0.620954 0.121137 -2.137714 -2.784880 -0.220304 0.179291 9.576180 2.057426 0.000000 0.000000 0.000000 0.000000 0.000000 0.000000 -0.886249 -2.432377 -0.394840 0.213109 7.675404 0.769473 7.973200 -14.422421 2.526322 -19.254025 27.217227 6.770697 0.000000 0.000000 0.000000 0.000000 0.000000 0.000000 -0.730231 -1.113831 9.058786 0.506643 1.333517 0.016377 -0.648246 -15.188085 -15.636466 0.000000 0.000000 0.000000 -0.730231 -1.113831 9.058786 0.940586 0.460569 -0.050114 -4.286769 -34.823400 22.714609 0.000000 0.000000 0.000000
-70.489724 80.539372 307.425771 0.902879 0.953896 -9.147157 -0.036683 -0.312297 9.160483 -0.086071 -0.062851 0.024970 0.232888 -2.336153 -1.004813 0.000000 0.000000 0.000000 1.008466 1.824347 -0.388930 -0.481770 0.527238 0.160616 -1.913057 -2.430639 -0.201950 0.445821 8.992432 2.037137 0.000000 0.000000 0.000000 0.000000 0.000000 0.000000 -0.977712 -1.880094 -0.328992 0.228464 6.866881 0.650504 9.451165 -12.227995 2.735200 -21.322864 26.945313 7.158592 0.000000 0.000000 0.000000 0.000000 0.000000 0.000000 -0.739898 -1.085195 9.132633 0.440174 1.403922 0.023322 -0.221860 -15.087859 -16.668231 0.000000 0.000000 0.000000 -0.739898 -1.085195 9.132633 0.958465 0.504970 -0.051147 -2.218096 -43.898250 30.491631 0.000000 0.000000 0.000000
-70.465167 80.529906 307.456522 0.923060 0.936776 -9.158856 -0.068301 -0.245134 9.171092 -0.105747 -0.020849 0.022037 -0.034655 -2.499388 -0.809923 0.000000 0.000000 0.000000 0.981320 1.717626 -0.388237 -0.454544 0.386646 0.189377 -1.232807 -2.795043 0.094074 0.783112 8.399894 1.687089 0.000000 0.000000 0.000000 0.000000 0.000000 0.000000 -1.282210 -1.270906 -0.270334 0.584679 5.796712 0.569291 10.055223 -10.104683 2.645877 -20.725673 24.831662 6.760564 0.000000 0.000000 0.000000 0.000000 0.000000 0.000000 -0.762325 -1.071653 9.144180 0.356375 1.450209 0.030706 -0.159022 -15.071809 -16.495060 0.000000 0.000000 0.000000 -1.591308 -1.048373 9.248895 1.771680 0.389775 -0.167347 0.296714 -49.364064 36.579090 0.000000 0.000000 0.000000
-70.430986 80.508968 307.513594 0.954544 0.904218 -9.074198 -0.094054 -0.224268 9.086451 -0.120914 -0.036863 0.021677 -0.133905 -2.234655 -0.698389 0.000000 0.000000 0.000000 0.919057 1.721735 -0.394018 -0.363384 0.282217 0.228747 -1.107805 -1.806849 -0.037472 -0.128601 8.420279 1.844655 0.000000 0.000000 0.000000 0.000000 0.000000 0.000000 -1.573695 -0.024011 -0.107807 1.296483 3.473899 0.460549 10.085153 -6.941551 2.222467 -20.693926 23.690847 7.179124 0.000000 0.000000 0.000000 0.000000 0.000000 0.000000 -0.800132 -1.043336 9.059381 0.286751 1.482349 0.036668 0.833106 -6.467875 -7.781213 0.000000 0.000000 0.000000 -1.698410 -0.972336 9.174626 1.880845 0.401435 -0.179509 0.674121 -49.796873 37.679976 0.000000 0.000000 0.000000
-70.389698 80.489169 307.578160 0.975100 0.834244 -8.876821 -0.123951 -0.299395 8.890061 -0.128201 -0.090020 0.022637 0.025089 -0.700951 -0.583108 0.000000 0.000000 0.000000 0.911582 1.834491 -0.382792 -0.284522 0.324585 0.236262 -0.296611 -1.068027 0.095793 -0.127544 8.123275 1.926974 0.000000 0.000000 0.000000 0.000000 0.000000 0.000000 -1.892777 2.104446 0.190939 1.828043 0.920932 0.241834 10.192371 -6.526034 2.185441 -20.585533 23.450686 7.011699 0.000000 0.000000 0.000000 0.000000 0.000000 0.000000 -1.658848 -1.019592 8.958258 1.071150 1.405277 -0.069383 0.627824 0.005714 -1.236260 0.000000 0.000000 0.000000 -1.806136 -0.878693 8.989003 2.065436 0.483405 -0.196012 -1.663327 -44.469695 33.152405 0.000000 0.000000 0.000000
-70.335638 80.462590 307.621663 1.009208 0.695901 -8.563805 -0.168231 -0.442650 8.579596 -0.777040 -0.282956 -0.022265 0.882159 1.470590 -0.412813 0.000000 0.000000 0.000000 1.610042 2.197959 -0.319475 -0.204983 0.465502 0.231008 0.330931 0.052590 0.085556 -0.443412 9.081942 2.369590 0.000000 0.000000 0.000000 0.000000 0.000000 0.000000 -1.531369 4.373831 0.538402 2.125951 -1.364187 0.001362 11.730939 -8.333083 2.819762 -20.974129 25.421900 7.694897 0.000000 0.000000 0.000000 0.000000 0.000000 0.000000 -1.822293 -0.795144 8.657402 1.130001 1.380664 -0.072873 0.342040 1.258602 0.559800 0.000000 0.000000 0.000000 -1.915256 -0.779441 8.685066 2.234851 0.616194 -0.209698 -1.688497 -43.849714 33.896096 0.000000 0.000000 0.000000
-70.312445 80.425218 307.669270 0.998493 0.466958 -7.919761 -0.924680 -0.600012 7.910850 -0.000000 0.000000 0.000000 1.193580 3.015675 -0.410621 0.000000 0.000000 0.000000 1.629331 2.003962 -0.264456 -0.061847 0.811610 0.199288 0.476272 0.803926 -0.016699 -0.782320 9.923875 2.752589 0.000000 0.000000 0.000000 0.000000 0.000000 0.000000 -1.749676 5.895944 0.801860 2.334124 -2.800556 -0.171677 11.540492 -10.239798 3.054997 -20.397941 25.860231 7.195378 0.000000 0.000000 0.000000 0.000000 0.000000 0.000000 -1.890906 -0.397324 8.020044 1.097053 1.296890 -0.063324 0.243324 -2.056194 -1.510774 0.000000 0.000000 0.000000 -1.942716 -0.596211 8.046667 2.330335 0.767003 -0.215169 -1.667973 -43.139521 34.821925 0.000000 0.000000 0.000000
-70.309163 80.389477 307.722876 0.948093 0.192457 -7.139685 -0.206791 -0.775475 7.163994 -0.149141 -0.251128 0.027617 1.182951 4.952983 -0.667668 0.000000 0.000000 0.000000 1.163603 2.509585 -0.247858 0.126322 1.286262 0.148599 -0.047897 0.893230 -0.203397 -0.580485 10.316140 3.013992 0.000000 0.000000 0.000000 0.000000 0.000000 0.000000 -2.463044 8.034271 1.019183 2.671300 -3.739855 -0.238506 10.789039 -14.017422 3.382768 -19.287517 27.610253 6.956258 0.000000 0.000000 0.000000 0.000000 0.000000 0.000000 -1.883849 0.072145 7.244237 1.045419 1.174200 -0.050929 -0.091705 -3.430101 -1.599090 0.000000 0.000000 0.000000 -1.922659 -0.361388 7.272623 2.426585 0.890182 -0.220038 -1.590739 -42.757681 35.847063 0.000000 0.000000 0.000000
-70.323922 80.355403 307.772608 0.858630 -0.121616 -6.271081 -0.197121 -0.923547 6.299484 -0.162098 -0.294177 0.028149 1.903848 6.659893 -0.984875 0.000000 0.000000 0.000000 1.329506 2.563150 -0.130276 0.274857 1.994354 0.028281 -0.863870 0.607486 -0.412259 1.100049 13.856536 4.037000 0.000000 0.000000 0.000000 0.000000 0.000000 0.000000 -2.576199 9.502599 1.208506 3.082902 -4.191751 -0.203203 9.962357 -18.277543 3.704241 -18.229395 29.408356 6.428070 0.000000 0.000000 0.000000 0.000000 0.000000 0.000000 -1.792999 0.581460 6.376212 0.960116 1.050959 -0.035034 -0.868213 -5.032856 -0.631349 0.000000 0.000000 0.000000 -1.828712 -0.081045 6.406253 2.506765 0.938428 -0.221244 0.382001 -46.890913 40.690912 0.000000 0.000000 0.000000
-70.351999 80.315400 307.793920 0.759483 -0.459639 -5.329378 -0.172749 -1.031014 5.361412 -0.173443 -0.318908 0.029037 2.569147 7.465124 -1.406280 0.000000 0.000000 0.000000 1.462874 2.445881 0.021144 0.432747 2.761408 -0.118824 -1.685438 -0.117670 -0.546841 -0.401026 15.479757 4.060632 0.000000 0.000000 0.000000 0.000000 0.000000 0.000000 -2.631847 10.355803 1.290774 3.428243 -4.058377 -0.099895 9.161497 -21.684642 3.872262 -17.732983 30.264138 5.416988 0.000000 0.000000 0.000000 0.000000 0.000000 0.000000 -1.645585 1.072909 5.430828 0.812824 0.917228 -0.017496 -1.275487 -12.775296 -7.516812 0.000000 0.000000 0.000000 -1.685500 0.191075 5.459949 2.328392 1.077338 -0.203993 0.061245 -46.011912 39.890868 0.000000 0.000000 0.000000
